REM DIRINDEX 1\5,1\2\6,1\2\7,1\3\8,1\3\9,1\4\10,1\4\11,1\4\12
REM DIRNAME cjc026,folder01,folder02,folder03,folder04,folder05,folder06,folder07,folder08,folder09,folder10,folder11
TITLE ""
FILE "EJE_DB3000_5th_6C_50.mp3" MP3
  TRACK 01 AUDIO
    TITLE "0:"
    INDEX 01 00:00:00
  TRACK 02 AUDIO
    TITLE "10:cjc026_12093"
    INDEX 01 00:00:08
  TRACK 03 AUDIO
    TITLE "0:"
    INDEX 01 00:01:24
  TRACK 04 AUDIO
    TITLE "11:cjc026_12094"
    INDEX 01 00:01:62
  TRACK 05 AUDIO
    TITLE "0:"
    INDEX 01 00:03:09
  TRACK 06 AUDIO
    TITLE "12:cjc026_12095"
    INDEX 01 00:03:45
  TRACK 07 AUDIO
    TITLE "0:"
    INDEX 01 00:04:61
  TRACK 08 AUDIO
    TITLE "10:cjc026_12096"
    INDEX 01 00:05:24
  TRACK 09 AUDIO
    TITLE "0:"
    INDEX 01 00:06:44
  TRACK 10 AUDIO
    TITLE "11:cjc026_12097"
    INDEX 01 00:07:06
  TRACK 11 AUDIO
    TITLE "0:"
    INDEX 01 00:08:42
  TRACK 12 AUDIO
    TITLE "12:cjc026_12098"
    INDEX 01 00:09:02
  TRACK 13 AUDIO
    TITLE "0:"
    INDEX 01 00:10:24
  TRACK 14 AUDIO
    TITLE "10:cjc026_12099"
    INDEX 01 00:10:57
  TRACK 15 AUDIO
    TITLE "0:"
    INDEX 01 00:12:20
  TRACK 16 AUDIO
    TITLE "11:cjc026_12100"
    INDEX 01 00:12:55
  TRACK 17 AUDIO
    TITLE "0:"
    INDEX 01 00:14:16
  TRACK 18 AUDIO
    TITLE "12:cjc026_12101"
    INDEX 01 00:14:54
  TRACK 19 AUDIO
    TITLE "0:"
    INDEX 01 00:16:15
  TRACK 20 AUDIO
    TITLE "10:cjc026_12102"
    INDEX 01 00:16:50
  TRACK 21 AUDIO
    TITLE "0:"
    INDEX 01 00:18:29
  TRACK 22 AUDIO
    TITLE "11:cjc026_12103"
    INDEX 01 00:18:67
  TRACK 23 AUDIO
    TITLE "0:"
    INDEX 01 00:20:47
  TRACK 24 AUDIO
    TITLE "12:cjc026_12104"
    INDEX 01 00:21:07
  TRACK 25 AUDIO
    TITLE "0:"
    INDEX 01 00:22:61
  TRACK 26 AUDIO
    TITLE "10:cjc026_12105"
    INDEX 01 00:23:21
  TRACK 27 AUDIO
    TITLE "0:"
    INDEX 01 00:24:54
  TRACK 28 AUDIO
    TITLE "11:cjc026_12106"
    INDEX 01 00:25:15
  TRACK 29 AUDIO
    TITLE "0:"
    INDEX 01 00:27:24
  TRACK 30 AUDIO
    TITLE "12:cjc026_12107"
    INDEX 01 00:27:59
  TRACK 31 AUDIO
    TITLE "0:"
    INDEX 01 00:29:17
  TRACK 32 AUDIO
    TITLE "10:cjc026_12108"
    INDEX 01 00:29:52
  TRACK 33 AUDIO
    TITLE "0:"
    INDEX 01 00:30:74
  TRACK 34 AUDIO
    TITLE "11:cjc026_12109"
    INDEX 01 00:31:34
  TRACK 35 AUDIO
    TITLE "0:"
    INDEX 01 00:33:03
  TRACK 36 AUDIO
    TITLE "12:cjc026_12110"
    INDEX 01 00:33:38
  TRACK 37 AUDIO
    TITLE "0:"
    INDEX 01 00:34:60
  TRACK 38 AUDIO
    TITLE "10:cjc026_12111"
    INDEX 01 00:35:21
  TRACK 39 AUDIO
    TITLE "0:"
    INDEX 01 00:36:54
  TRACK 40 AUDIO
    TITLE "11:cjc026_12112"
    INDEX 01 00:37:16
  TRACK 41 AUDIO
    TITLE "0:"
    INDEX 01 00:39:23
  TRACK 42 AUDIO
    TITLE "12:cjc026_12113"
    INDEX 01 00:39:61
  TRACK 43 AUDIO
    TITLE "0:"
    INDEX 01 00:41:19
  TRACK 44 AUDIO
    TITLE "10:cjc026_12114"
    INDEX 01 00:41:54
  TRACK 45 AUDIO
    TITLE "0:"
    INDEX 01 00:43:33
  TRACK 46 AUDIO
    TITLE "11:cjc026_12115"
    INDEX 01 00:43:69
  TRACK 47 AUDIO
    TITLE "0:"
    INDEX 01 00:45:70
  TRACK 48 AUDIO
    TITLE "12:cjc026_12116"
    INDEX 01 00:46:30
  TRACK 49 AUDIO
    TITLE "0:"
    INDEX 01 00:48:07
  TRACK 50 AUDIO
    TITLE "10:cjc026_12117"
    INDEX 01 00:48:39
  TRACK 51 AUDIO
    TITLE "0:"
    INDEX 01 00:50:27
  TRACK 52 AUDIO
    TITLE "11:cjc026_12118"
    INDEX 01 00:50:65
  TRACK 53 AUDIO
    TITLE "0:"
    INDEX 01 00:53:69
  TRACK 54 AUDIO
    TITLE "12:cjc026_12119"
    INDEX 01 00:54:32
  TRACK 55 AUDIO
    TITLE "0:"
    INDEX 01 00:56:14
  TRACK 56 AUDIO
    TITLE "10:cjc026_12120"
    INDEX 01 00:56:52
  TRACK 57 AUDIO
    TITLE "0:"
    INDEX 01 00:58:15
  TRACK 58 AUDIO
    TITLE "11:cjc026_12121"
    INDEX 01 00:58:51
  TRACK 59 AUDIO
    TITLE "0:"
    INDEX 01 01:01:55
  TRACK 60 AUDIO
    TITLE "12:cjc026_12122"
    INDEX 01 01:02:12
  TRACK 61 AUDIO
    TITLE "0:"
    INDEX 01 01:03:51
  TRACK 62 AUDIO
    TITLE "10:cjc026_12123"
    INDEX 01 01:04:11
  TRACK 63 AUDIO
    TITLE "0:"
    INDEX 01 01:05:60
  TRACK 64 AUDIO
    TITLE "11:cjc026_12124"
    INDEX 01 01:06:20
  TRACK 65 AUDIO
    TITLE "0:"
    INDEX 01 01:07:69
  TRACK 66 AUDIO
    TITLE "12:cjc026_12125"
    INDEX 01 01:08:30
  TRACK 67 AUDIO
    TITLE "0:"
    INDEX 01 01:10:01
  TRACK 68 AUDIO
    TITLE "10:cjc026_12126"
    INDEX 01 01:10:39
  TRACK 69 AUDIO
    TITLE "0:"
    INDEX 01 01:11:72
  TRACK 70 AUDIO
    TITLE "11:cjc026_12127"
    INDEX 01 01:12:35
  TRACK 71 AUDIO
    TITLE "0:"
    INDEX 01 01:13:43
  TRACK 72 AUDIO
    TITLE "12:cjc026_12128"
    INDEX 01 01:14:06
  TRACK 73 AUDIO
    TITLE "0:"
    INDEX 01 01:15:39
  TRACK 74 AUDIO
    TITLE "10:cjc026_12129"
    INDEX 01 01:15:74
  TRACK 75 AUDIO
    TITLE "0:"
    INDEX 01 01:17:43
  TRACK 76 AUDIO
    TITLE "11:cjc026_12130"
    INDEX 01 01:18:06
  TRACK 77 AUDIO
    TITLE "0:"
    INDEX 01 01:19:58
  TRACK 78 AUDIO
    TITLE "12:cjc026_12131"
    INDEX 01 01:20:18
  TRACK 79 AUDIO
    TITLE "0:"
    INDEX 01 01:21:62
  TRACK 80 AUDIO
    TITLE "10:cjc026_12132"
    INDEX 01 01:22:22
  TRACK 81 AUDIO
    TITLE "0:"
    INDEX 01 01:24:58
  TRACK 82 AUDIO
    TITLE "11:cjc026_12133"
    INDEX 01 01:25:18
  TRACK 83 AUDIO
    TITLE "0:"
    INDEX 01 01:28:15
  TRACK 84 AUDIO
    TITLE "12:cjc026_12134"
    INDEX 01 01:28:47
  TRACK 85 AUDIO
    TITLE "0:"
    INDEX 01 01:31:06
  TRACK 86 AUDIO
    TITLE "10:cjc026_12135"
    INDEX 01 01:31:43
  TRACK 87 AUDIO
    TITLE "0:"
    INDEX 01 01:33:72
  TRACK 88 AUDIO
    TITLE "11:cjc026_12136"
    INDEX 01 01:34:32
  TRACK 89 AUDIO
    TITLE "0:"
    INDEX 01 01:36:46
  TRACK 90 AUDIO
    TITLE "12:cjc026_12137"
    INDEX 01 01:37:09
  TRACK 91 AUDIO
    TITLE "0:"
    INDEX 01 01:39:37
  TRACK 92 AUDIO
    TITLE "10:cjc026_12138"
    INDEX 01 01:39:72
  TRACK 93 AUDIO
    TITLE "0:"
    INDEX 01 01:42:34
  TRACK 94 AUDIO
    TITLE "11:cjc026_12139"
    INDEX 01 01:42:66
  TRACK 95 AUDIO
    TITLE "0:"
    INDEX 01 01:45:27
  TRACK 96 AUDIO
    TITLE "12:cjc026_12140"
    INDEX 01 01:45:63
  TRACK 97 AUDIO
    TITLE "0:"
    INDEX 01 01:48:24
